<svg width="800" height="600" xmlns="http://www.w3.org/2000/svg">

 <g>
  <title>Layer 1</title>
  <g>
   <g>
    <title>Layer 1</title>
    <g stroke="null">
     <g stroke="null">
      <title stroke="null">Layer 1</title>
      <g stroke="null">
       <g id="svg_1" stroke="null">
        <path fill="rgb(12.941176%,12.941176%,12.941176%)" fill-rule="nonzero" d="m255.22288,284.82226c1.99406,0 3.60915,1.52923 3.60915,3.41409l0,23.5273c0,1.88486 -1.61509,3.41409 -3.60915,3.41409l-18.44576,0c-1.99406,0 -3.60915,-1.52923 -3.60915,-3.41409l0,-23.5273c0,-1.80662 1.48426,-3.28606 3.36102,-3.40555l0.24813,-0.00853l18.44576,0l0,-0.00001zm1.20305,21.24414l-20.85186,0l0,5.69725c0,0.62734 0.53836,1.13803 1.20305,1.13803l18.44576,0c0.66469,0 1.20305,-0.51069 1.20305,-1.13803l0,-5.69725zm-17.2412,2.27606l13.63206,0c0.66469,0 1.20305,0.50927 1.20305,1.13803c0,0.57613 -0.45264,1.05125 -1.03913,1.12665l-0.16392,0.01138l-13.63206,0c-0.66469,0 -1.20305,-0.51069 -1.20305,-1.13803c0,-0.57613 0.45264,-1.05267 1.03913,-1.12807l0.16392,-0.00996l13.63206,0l-13.63206,0zm16.03815,-21.24414l-18.44576,0l-0.16392,0.01138c-0.58649,0.0754 -1.03913,0.55052 -1.03913,1.12665l0,15.554l4.00916,0l0,-3.4212c0,-0.98155 0.7895,-1.78955 1.80007,-1.88771l0.20602,-0.00853l8.82136,0c1.03913,0 1.8933,0.74541 1.99556,1.70278l0.01053,0.19346l0,3.4212l4.00916,0l0,-15.554c0,-0.62733 -0.53836,-1.13803 -1.20305,-1.13803l0.00001,0l-0.00001,0zm-9.22288,2.27037c2.21511,0 4.01067,1.69708 4.01067,3.79247c0,2.0954 -1.79555,3.7939 -4.01067,3.7939c-2.21511,0 -4.01067,-1.69851 -4.01067,-3.7939c0,-2.0954 1.79555,-3.79247 4.01067,-3.79247zm0,0" stroke="null"/>
       </g>
      </g>
     </g>
    </g>
    <g/>
   </g>
  </g>
 </g>
</svg>