<?xml version="1.0" encoding="UTF-8"?>
<svg xmlns="http://www.w3.org/2000/svg" xmlns:xlink="http://www.w3.org/1999/xlink" width="45px" height="45px" viewBox="0 0 45 45" version="1.1">
<g id="surface1">
<path style="fill-rule:nonzero;fill:rgb(100%,100%,100%);fill-opacity:1;stroke-width:1;stroke-linecap:butt;stroke-linejoin:miter;stroke:rgb(0%,0%,0%);stroke-opacity:1;stroke-miterlimit:4;" d="M 7.767969 56.05434 C 5.988802 56.05434 4.548524 54.608767 4.548524 52.834896 L 4.548524 7.767969 C 4.548524 5.988802 5.988802 4.548524 7.767969 4.548524 L 52.834896 4.548524 C 54.608767 4.548524 56.05434 5.988802 56.05434 7.767969 L 56.05434 52.834896 C 56.05434 54.608767 54.608767 56.05434 52.834896 56.05434 Z M 7.767969 56.05434 " transform="matrix(0.737705,0,0,0.737705,0,0)"/>
<path style=" stroke:none;fill-rule:nonzero;fill:rgb(0%,0%,0%);fill-opacity:1;" d="M 11.445312 7.878906 L 11.445312 12.488281 L 17.953125 12.488281 L 17.953125 7.878906 Z M 11.445312 7.878906 "/>
<path style=" stroke:none;fill-rule:nonzero;fill:rgb(0%,0%,0%);fill-opacity:1;" d="M 19.089844 23.8125 L 16.160156 23.8125 L 16.160156 26.738281 L 13.238281 26.738281 L 13.238281 23.8125 L 10.3125 23.8125 L 10.3125 20.886719 L 13.238281 20.886719 L 13.238281 17.960938 L 16.160156 17.960938 L 16.160156 20.886719 L 19.089844 20.886719 Z M 18.234375 13.203125 L 11.164062 13.203125 C 9.410156 15.488281 8.367188 18.347656 8.367188 21.449219 L 8.367188 36.824219 L 21.03125 36.824219 L 21.03125 21.449219 C 21.03125 18.347656 19.988281 15.488281 18.234375 13.203125 "/>
<path style=" stroke:none;fill-rule:nonzero;fill:rgb(0%,0%,0%);fill-opacity:1;" d="M 36.097656 35.183594 C 36.097656 35.71875 35.664062 36.15625 35.125 36.15625 L 24.96875 36.15625 C 24.433594 36.15625 23.996094 35.71875 23.996094 35.183594 L 23.996094 14.75 C 23.996094 14.210938 24.433594 13.777344 24.96875 13.777344 L 35.125 13.777344 C 35.664062 13.777344 36.097656 14.210938 36.097656 14.75 Z M 35.125 13.0625 L 24.96875 13.0625 C 24.039062 13.0625 23.285156 13.816406 23.285156 14.75 L 23.285156 35.183594 C 23.285156 36.113281 24.039062 36.867188 24.96875 36.867188 L 35.125 36.867188 C 36.054688 36.867188 36.808594 36.113281 36.808594 35.183594 L 36.808594 14.75 C 36.808594 13.816406 36.054688 13.0625 35.125 13.0625 "/>
<path style=" stroke:none;fill-rule:nonzero;fill:rgb(0%,0%,0%);fill-opacity:1;" d="M 29.925781 32.59375 L 27.277344 32.59375 C 26.65625 32.59375 26.15625 32.09375 26.15625 31.476562 C 26.15625 31.175781 26.269531 30.894531 26.480469 30.683594 C 26.695312 30.472656 26.976562 30.355469 27.277344 30.355469 C 27.277344 30.355469 29.660156 30.355469 29.925781 30.355469 C 30.089844 30.703125 30.175781 31.085938 30.175781 31.476562 C 30.175781 31.859375 30.089844 32.246094 29.925781 32.59375 Z M 32.824219 29.644531 L 27.269531 29.648438 C 26.261719 29.648438 25.441406 30.464844 25.441406 31.476562 C 25.441406 32.484375 26.261719 33.300781 27.269531 33.300781 L 32.824219 33.300781 C 33.835938 33.300781 34.652344 32.484375 34.652344 31.472656 C 34.652344 30.464844 33.835938 29.644531 32.824219 29.644531 "/>
<path style=" stroke:none;fill-rule:nonzero;fill:rgb(0%,0%,0%);fill-opacity:1;" d="M 29.925781 26.085938 L 27.277344 26.085938 C 26.65625 26.085938 26.15625 25.582031 26.15625 24.964844 C 26.15625 24.667969 26.269531 24.386719 26.480469 24.171875 C 26.695312 23.960938 26.976562 23.847656 27.277344 23.847656 C 27.277344 23.847656 29.660156 23.847656 29.925781 23.847656 C 30.089844 24.195312 30.175781 24.578125 30.175781 24.964844 C 30.175781 25.351562 30.089844 25.738281 29.925781 26.085938 Z M 32.824219 23.136719 L 27.269531 23.140625 C 26.261719 23.140625 25.441406 23.957031 25.441406 24.964844 C 25.441406 25.976562 26.261719 26.792969 27.269531 26.792969 L 32.824219 26.792969 C 33.835938 26.792969 34.652344 25.972656 34.652344 24.964844 C 34.652344 23.957031 33.835938 23.136719 32.824219 23.136719 "/>
<path style=" stroke:none;fill-rule:nonzero;fill:rgb(0%,0%,0%);fill-opacity:1;" d="M 29.925781 19.578125 L 27.277344 19.578125 C 26.65625 19.578125 26.15625 19.074219 26.15625 18.457031 C 26.15625 18.15625 26.269531 17.875 26.480469 17.664062 C 26.695312 17.453125 26.976562 17.335938 27.277344 17.335938 C 27.277344 17.335938 29.660156 17.335938 29.925781 17.335938 C 30.089844 17.6875 30.175781 18.070312 30.175781 18.457031 C 30.175781 18.84375 30.089844 19.226562 29.925781 19.578125 Z M 32.824219 16.628906 L 27.269531 16.628906 C 26.261719 16.628906 25.441406 17.449219 25.441406 18.457031 C 25.441406 19.46875 26.261719 20.285156 27.269531 20.285156 L 32.824219 20.285156 C 33.835938 20.285156 34.652344 19.464844 34.652344 18.457031 C 34.652344 17.449219 33.835938 16.628906 32.824219 16.628906 "/>
</g>
</svg>
