<svg width="800" height="600" xmlns="http://www.w3.org/2000/svg">

 <g>
  <title>Layer 1</title>
  <g stroke="null">
   <g stroke="null">
    <title stroke="null">Layer 1</title>
    <g stroke="null">
     <title stroke="null">body-check-up</title>
     <path stroke="null" d="m258.44636,296.30125a14.62169,13.97621 0 0 0 -0.63387,-1.49435a0.9238,0.88302 0 1 0 -1.66853,0.76348c0.11086,0.21736 0.21034,0.44015 0.30414,0.66295a8.73492,8.34932 0 0 1 0.9437,-0.01087a8.30287,7.93634 0 0 1 1.05456,0.08966l0,-0.01087zm-1.89025,5.50735l1.28764,0a0.43774,0.41842 0 0 1 0.43774,0.41842l0,1.4237l1.48946,0a0.43774,0.41842 0 0 1 0.4349,0.4157l0,1.2308a0.44058,0.42113 0 0 1 -0.4349,0.41842l-1.48946,0l0,1.38838a0.44058,0.42113 0 0 1 -0.43774,0.4157l-1.28764,0a0.43774,0.41842 0 0 1 -0.4349,-0.4157l0,-1.38838l-1.48946,0a0.44058,0.42113 0 0 1 -0.43774,-0.41842l0,-1.2308a0.43774,0.41842 0 0 1 0.43774,-0.41842l1.48946,0l0,-1.42099a0.43774,0.41842 0 0 1 0.4349,-0.41842zm-17.90759,-5.16229c-0.64808,-0.39125 -0.91812,-0.71457 -0.76463,-1.26612a1.08298,1.03517 0 0 1 1.33312,-0.72l3.93114,2.15458l0.79021,0.17932a4.70145,4.49391 0 0 0 2.65203,0.02174l1.05172,-0.23094l3.77765,-2.07035a1.08298,1.03517 0 0 1 1.32459,0.73087c0.15349,0.5434 -0.21603,0.96725 -0.76463,1.26612l-4.05337,2.22793c0.13075,2.98869 0.69356,6.40667 0.69356,9.29483c0,0.88846 -1.98973,1.05148 -2.17165,0l-0.72199,-5.11338l-0.85274,0l-0.71346,5.11338c-0.12223,0.99442 -2.23419,0.94008 -2.17165,0l0.6623,-9.38178l-4.0022,-2.19533l0,-0.01087zm6.65992,-4.61889a2.18018,2.08393 0 1 1 -2.17734,2.08393a2.18018,2.08393 0 0 1 2.17734,-2.08393zm10.78151,6.40395a6.6116,6.31973 0 0 1 7.67468,6.99354a6.42684,6.14312 0 0 1 -0.40647,1.53782l2.99313,2.21978a0.31836,0.3043 0 0 1 0.05685,0.42385l-1.5662,1.9182a0.31551,0.30159 0 0 1 -0.44343,0.05434l-2.86521,-2.14642a6.60307,6.31157 0 0 1 -5.79581,1.38838a6.60875,6.31701 0 0 1 -3.9283,-9.8165l0,-0.01902a6.60875,6.31701 0 0 1 4.26371,-2.55397l0.01705,0zm4.16138,2.11654a5.27563,5.04274 0 1 0 -6.10279,8.22434l0.0199,0a5.29269,5.05904 0 0 0 5.83844,0.144a5.27279,5.04002 0 0 0 0.24445,-8.36834zm-6.00331,-7.70268a0.93517,0.89389 0 0 0 0.54576,0.2717a0.92665,0.88574 0 0 0 0.83,-1.46446a13.04127,12.46556 0 0 0 -1.42124,-1.31774a0.92665,0.88574 0 0 0 -1.31322,1.23351a1.13699,1.0868 0 0 0 0.13075,0.12498a10.17037,9.7214 0 0 1 1.23079,1.14114l-0.00284,0.01087zm-4.14149,-2.87186a0.9238,0.88302 0 1 0 0.73336,-1.6302a14.79792,14.14467 0 0 0 -1.86466,-0.62763a0.9238,0.88302 0 0 0 -0.83853,1.52967a0.89538,0.85585 0 0 0 0.34962,0.18476a13.04127,12.46556 0 0 1 1.62021,0.5434zm-5.01413,-0.94823a0.92665,0.88574 0 0 0 -0.03695,-1.76876a13.8997,13.2861 0 0 0 -1.97268,0.16845a0.9238,0.88302 0 1 0 0.3013,1.73344a11.88154,11.35703 0 0 1 1.70548,-0.144l0.00284,0.01087zm-4.97149,1.12484a0.92665,0.88574 0 0 0 -0.42069,-1.6791a0.91243,0.87215 0 0 0 -0.38658,0.08966a13.92813,13.31327 0 0 0 -1.72254,0.93736a0.92665,0.88574 0 0 0 0.87832,1.54597a0.83569,0.7988 0 0 0 0.15634,-0.08151a12.50689,11.95477 0 0 1 1.49514,-0.8151l0,0.00272zm-0.80726,-1.58944l-1.72254,0.93736l1.04035,1.46174l0.68219,-2.3991zm-3.22337,4.589a0.9238,0.88302 0 0 0 -1.28764,-1.25525a0.83285,0.79608 0 0 0 -0.1336,0.12498a14.18395,13.5578 0 0 0 -1.15689,1.5351a0.92665,0.88574 0 0 0 1.34449,1.17102a0.95223,0.91019 0 0 0 0.23308,-0.24453a12.07483,11.54179 0 0 1 1.00055,-1.33133zm-2.37062,4.33089a0.92665,0.88574 0 0 0 -1.64864,-0.74174a0.95507,0.91291 0 0 0 -0.13928,0.29887a14.5222,13.88112 0 0 0 -0.38942,1.8394a0.9238,0.88302 0 0 0 1.81634,0.33419a0.63671,0.60861 0 0 0 0.02558,-0.12226a12.72007,12.15854 0 0 1 0.33541,-1.61118l0,0.00272zm-0.28425,4.89059a0.92665,0.88574 0 0 0 -1.83055,0.04075a0.93517,0.89389 0 0 0 0,0.2554a13.8997,13.2861 0 0 0 0.46048,1.83669a0.9238,0.88302 0 0 0 1.80497,-0.2717a0.95507,0.91291 0 0 0 -0.04264,-0.2554a12.541,11.98737 0 0 1 -0.40079,-1.59759l0.00853,-0.00815zm1.88456,4.54281a0.92665,0.88574 0 0 0 -1.60316,0.82868a0.95507,0.91291 0 0 0 0.09949,0.16302a14.07025,13.44912 0 0 0 1.21942,1.49435a0.9238,0.88302 0 1 0 1.36439,-1.19276a13.17203,12.59055 0 0 1 -1.05456,-1.29329l-0.02558,0zm3.69522,3.38537a0.92665,0.88574 0 0 0 -1.24785,1.2471a0.86695,0.82868 0 0 0 0.28425,0.2717a13.75473,13.14753 0 0 0 1.75949,0.87215a0.92665,0.88574 0 0 0 0.93517,-1.52423a1.03182,0.98627 0 0 0 -0.20182,-0.1114a11.71384,11.19673 0 0 1 -1.52357,-0.75532l-0.00568,0zm4.83221,1.61118a0.9238,0.88302 0 0 0 -0.38658,1.70084a1.17394,1.12212 0 0 0 0.17339,0.03532a13.1436,12.56338 0 0 0 1.98973,0.09238a0.9238,0.88302 0 0 0 -0.04832,-1.76605a12.77408,12.21017 0 0 1 -1.70548,-0.08151l-0.02274,0.01902zm5.09087,-0.47276a0.9238,0.88302 0 0 0 0.56849,1.68182a14.16974,13.54421 0 0 0 1.8334,-0.70098a0.90675,0.86672 0 0 0 0.47185,-1.0705a9.09592,8.69438 0 0 1 -0.7362,-0.59774a0.88685,0.8477 0 0 0 -0.15349,0a0.93517,0.89389 0 0 0 -0.38942,0.08966a12.89346,12.32428 0 0 1 -1.59463,0.59774z"/>
    </g>
   </g>
  </g>
 </g>
</svg>