<svg width="800" height="600" xmlns="http://www.w3.org/2000/svg" xmlns:undefined="http://www.bohemiancoding.com/sketch/ns">

 <g>
  <title>Layer 1</title>
  <g stroke="null">
   <title stroke="null">upload</title>
   <desc stroke="null">Created with Sketch Beta.</desc>

   <g stroke="null"  fill-rule="evenodd" fill="none" id="svg_1">
    <g stroke="null" fill="#000000" transform="translate(-571 -676)"  id="svg_2">
     <path stroke="null"  id="svg_3" d="m828,973.77814c-1.104,0 -2,0.82709 -2,1.84618l0,3.69235l-22,0l0,-3.69235c0,-1.01909 -0.896,-1.84618 -2,-1.84618c-1.104,0 -2,0.82709 -2,1.84618l0,6.46161c0,0.44216 0.521,0.92309 1,0.92309l28,0c0.604,0 1,-0.42277 1,-0.92309l0,-6.46161c0,-1.01909 -0.896,-1.84618 -2,-1.84618l0,0zm-17,-7.3847l2,0l0,8.30779c0,1.01909 0.896,1.84618 2,1.84618c1.104,0 2,-0.82709 2,-1.84618l0,-8.30779l2,0c0.704,0 1.326,0.08769 1.719,-0.27693c0.391,-0.36277 0.391,-0.95263 0,-1.31632l-4.943,-5.53022c-0.21,-0.19385 -0.487,-0.27693 -0.76,-0.26308c-0.274,-0.01385 -0.551,0.06923 -0.76,0.26308l-4.943,5.53022c-0.392,0.3637 -0.392,0.95355 0,1.31632c0.392,0.36462 1.295,0.27693 1.687,0.27693l0,0z"/>
    </g>
   </g>
  </g>
 </g>
</svg>